<?xml version="1.0" encoding="utf-8"?>
<!-- Generator: Adobe Illustrator 25.0.1, SVG Export Plug-In . SVG Version: 6.00 Build 0)  -->
<svg version="1.1" id="Capa_1" xmlns="http://www.w3.org/2000/svg" xmlns:xlink="http://www.w3.org/1999/xlink" x="0px" y="0px"
	 viewBox="0 0 497.8 328.3" style="enable-background:new 0 0 497.8 328.3;" xml:space="preserve">
<style type="text/css">
	.st0{fill:url(#SVGID_1_);}
</style>
<g>
	<linearGradient id="SVGID_1_" gradientUnits="userSpaceOnUse" x1="0" y1="164.1694" x2="497.8322" y2="164.1694">
		<stop  offset="0" style="stop-color:#488A25"/>
		<stop  offset="0.2984" style="stop-color:#509324"/>
		<stop  offset="0.7929" style="stop-color:#66AD21"/>
		<stop  offset="0.9944" style="stop-color:#71B920"/>
	</linearGradient>
	<path class="st0" d="M383.9,328.3l-4.7-139.7l-35.9,27l-35.1,110.8l-15.8-72.6l-43.5,32.7l-43.5-32.7l-15.8,72.6l-35.1-110.8
		l-35.9-27l-4.7,139.7L0,84.9L107.8,166L112,42.7l52.5,166l33.5,25.2L248.9,0l51,233.8l33.5-25.2l52.5-166L390,166l107.8-81.1
		L383.9,328.3z M302.6,246.3l7.7,35.3l17.1-53.9L302.6,246.3z M170.5,227.7l17,53.9l7.7-35.3L170.5,227.7z M30.2,122.2l73.7,157.5
		l3.4-99.6L30.2,122.2z M390.5,180.1l3.4,99.6l73.7-157.5L390.5,180.1z M208.2,241.5l40.8,30.6l40.8-30.6l-40.8-187L208.2,241.5z
		 M119.1,174.5l29.4,22.1l-27.3-86.2L119.1,174.5z M376.6,110.5l-27.3,86.2l29.4-22.1L376.6,110.5z"/>
</g>
</svg>
